<svg xmlns="http://www.w3.org/2000/svg" width="1812.987" height="330.093" viewBox="0 0 1812.987 330.093"><g transform="translate(0 75.298)" fill="#9eb7d5"><path d="M 1666.895629882812 254.2945861816406 L 146.0911865234375 254.2945861816406 L 0.5001043081283569 199.3421173095703 L 0.5001043081283569 -74.57917785644531 L 145.8262481689453 -20.64404296875 L 145.9103240966797 -20.61290550231934 L 146.0001068115234 -20.61290550231934 L 1666.986694335938 -20.61290550231934 L 1667.076416015625 -20.61290550231934 L 1667.160522460938 -20.64404296875 L 1812.486694335938 -74.57917785644531 L 1812.486694335938 199.3421173095703 L 1666.895629882812 254.2945861816406 Z" stroke="none"/><path d="M 0.9998779296875 -73.86036682128906 L 0.9998779296875 198.9962310791016 L 146.1826171875 253.7945861816406 L 1666.8037109375 253.7945861816406 L 1811.986450195312 198.9962310791016 L 1811.986450195312 -73.86036682128906 L 1667.166015625 -20.11289978027344 L 145.8203125 -20.11289978027344 L 145.6519775390625 -20.17539978027344 L 0.9998779296875 -73.86036682128906 M -0.0001220703125 -75.29812622070312 L 145.9998779296875 -21.11289978027344 L 1666.986450195312 -21.11289978027344 L 1812.986450195312 -75.29812622070312 L 1812.986450195312 199.6877746582031 L 1666.986450195312 254.7945861816406 L 145.9998779296875 254.7945861816406 L -0.0001220703125 199.6877746582031 L -0.0001220703125 -75.29812622070312 Z" stroke="none" /></g></svg>