<svg xmlns="http://www.w3.org/2000/svg" width="1920" height="614.062" viewBox="0 0 1920 614.062"><g transform="translate(0 12.455)" fill="#9eb7d5"><path d="M 1774.266723632812 601.1065673828125 L 145.7312316894531 601.1065673828125 L 2.304599285125732 547.7459106445312 L 0.5022879242897034 -11.74679183959961 L 145.4742889404297 39.65987777709961 L 145.5554809570312 39.68868637084961 L 145.6414337158203 39.68868637084961 L 1774.358520507812 39.68868637084961 L 1774.444580078125 39.68868637084961 L 1774.525756835938 39.65987777709961 L 1919.5 -11.74760246276855 L 1919.5 545.7516479492188 L 1774.266723632812 601.1065673828125 Z" stroke="none"/><path d="M 1919 -11.03985595703125 L 1774.53076171875 40.18865966796875 L 145.46923828125 40.18865966796875 L 145.30712890625 40.13104248046875 L 1.0045166015625 -11.0382080078125 L 2.803466796875 547.3977661132812 L 145.8212890625 600.6065673828125 L 1774.174194335938 600.6065673828125 L 1919 545.4069213867188 L 1919 -11.03985595703125 M 0 -12.45538330078125 L 145.6414794921875 39.18865966796875 L 1774.358520507812 39.18865966796875 L 1920 -12.45538330078125 L 1920 546.0960693359375 L 1774.358520507812 601.6065673828125 L 145.6414794921875 601.6065673828125 L 1.8056640625 548.0934448242188 L 0 -12.45538330078125 Z" stroke="none" fill="#707070"/></g></svg>