<svg xmlns="http://www.w3.org/2000/svg" width="1920" height="862.297" viewBox="0 0 1920 862.297"><g transform="translate(0 12.455)" fill="#9eb7d5"><path d="M 1773.89990234375 849.3419799804688 L 146.1000366210938 849.3419799804688 L 0.5 788.744384765625 L 0.5 -11.7479362487793 L 145.8333282470703 39.66005706787109 L 145.9142913818359 39.68862915039062 L 146 39.68862915039062 L 1774 39.68862915039062 L 1774.085693359375 39.68862915039062 L 1774.166625976562 39.66005706787109 L 1919.5 -11.7479362487793 L 1919.5 788.744384765625 L 1773.89990234375 849.3419799804688 Z" stroke="none"/><path d="M 1 -11.04058837890625 L 1 788.4108276367188 L 146.2000732421875 848.8419799804688 L 1773.799926757812 848.8419799804688 L 1919 788.4108276367188 L 1919 -11.04058837890625 L 1774.171630859375 40.1885986328125 L 145.828369140625 40.1885986328125 L 145.6663818359375 40.1314697265625 L 1 -11.04058837890625 M 0 -12.4552001953125 L 146 39.1885986328125 L 1774 39.1885986328125 L 1920 -12.4552001953125 L 1920 789.0779418945312 L 1774 849.8419799804688 L 146 849.8419799804688 L 0 789.0779418945312 L 0 -12.4552001953125 Z" stroke="none" fill="#707070"/></g></svg>